<?xml version="1.0" standalone="no"?><!-- Generator: Gravit.io --><svg xmlns="http://www.w3.org/2000/svg" xmlns:xlink="http://www.w3.org/1999/xlink" style="isolation:isolate" viewBox="0 0 100 100" width="100" height="100"><defs><clipPath id="_clipPath_e1uPmvWqLdYI6vvlCJtUXg9FeD9rz0dT"><rect width="100" height="100"/></clipPath></defs><g clip-path="url(#_clipPath_e1uPmvWqLdYI6vvlCJtUXg9FeD9rz0dT)"><clipPath id="_clipPath_pdWKVWytg2HOPicxRJiSX2yyGn49zqPd"><rect x="0" y="0" width="100" height="100" transform="matrix(1,0,0,1,0,0)" fill="rgb(255,255,255)"/></clipPath><g clip-path="url(#_clipPath_pdWKVWytg2HOPicxRJiSX2yyGn49zqPd)"><g><g><g><path d=" M 100 50 C 100 77.614 77.614 100 50 100 C 22.386 100 0 77.614 0 50 C 0 22.386 22.386 0 50 0 C 77.614 0 100 22.386 100 50 Z " fill="rgb(65,95,120)"/><path d=" M 61.644 75.972 C 62.459 79.554 62.89 83.281 62.89 87.11 C 62.89 91.084 62.424 94.95 61.548 98.657 C 57.841 99.534 53.975 100 50 100 C 22.386 100 0 77.614 0 50 C 0 46.025 0.466 42.159 1.343 38.452 C 5.05 37.576 8.916 37.11 12.89 37.11 C 13.749 37.11 14.602 37.131 15.449 37.174 C 15.427 37.338 15.412 37.502 15.412 37.669 C 15.412 41.495 21.318 44.596 28.604 44.596 C 31.659 44.596 34.469 44.05 36.705 43.134 C 40.724 45.315 44.408 48.033 47.666 51.188 C 46.154 54.003 45.248 57.565 45.248 61.442 C 45.248 70.548 50.232 77.93 56.38 77.93 C 58.284 77.93 60.077 77.22 61.644 75.972 Z " fill="rgb(100,210,205)"/><path d=" M 61.644 75.972 C 62.459 79.554 62.89 83.281 62.89 87.11 C 62.89 91.084 62.424 94.95 61.548 98.657 C 60.784 98.838 60.012 98.997 59.235 99.142 C 28.747 95.423 4.577 71.253 0.858 40.765 C 1.003 39.988 1.162 39.216 1.343 38.452 C 5.05 37.576 8.916 37.11 12.89 37.11 C 13.69 37.11 14.485 37.128 15.275 37.165 C 15.333 37.168 15.391 37.173 15.449 37.176 C 15.427 37.339 15.412 37.503 15.412 37.669 C 15.412 41.495 21.318 44.596 28.604 44.596 C 31.658 44.596 34.466 44.05 36.702 43.136 C 40.721 45.317 44.407 48.032 47.666 51.188 C 46.154 54.003 45.248 57.565 45.248 61.442 C 45.248 70.548 50.232 77.93 56.38 77.93 C 58.284 77.93 60.077 77.22 61.644 75.972 Z " fill="rgb(140,235,235)"/><path d=" M 40.262 85.631 C 41.787 87.157 41.787 89.63 40.262 91.155 L 34.024 97.393 C 26.98 95.019 20.639 91.119 15.393 86.086 L 21.233 80.245 C 22.759 78.72 25.232 78.72 26.757 80.245 L 29.52 83.008 C 29.934 83.422 30.232 83.907 30.421 84.423 L 31.975 82.869 C 33.501 81.343 35.974 81.343 37.5 82.869 L 40.262 85.631 Z  M 47.537 51.061 C 46.639 51.13 45.761 51.505 45.075 52.191 L 29.953 67.313 C 28.427 68.839 28.427 71.312 29.953 72.837 L 32.715 75.6 C 34.24 77.125 36.714 77.125 38.239 75.6 L 40.788 73.051 C 40.844 73.115 40.899 73.18 40.961 73.242 L 50.475 82.756 C 52 84.282 54.474 84.282 55.999 82.756 L 61.848 76.908 C 59.764 66.858 54.664 57.913 47.537 51.061 Z  M 22.03 69.082 L 31.697 59.415 C 33.223 57.889 33.223 55.416 31.697 53.89 L 28.935 51.128 L 36.849 43.215 C 36.846 43.212 36.843 43.211 36.839 43.209 C 30.382 39.679 23.062 37.533 15.275 37.167 L 9.601 42.842 C 8.075 44.367 8.075 46.841 9.601 48.366 L 12.363 51.128 L 10.982 52.509 C 9.456 54.035 9.456 56.508 10.982 58.033 L 13.744 60.796 C 12.218 62.321 12.218 64.794 13.744 66.32 L 16.506 69.082 C 18.031 70.608 20.505 70.608 22.03 69.082 Z " fill="rgb(60,175,150)"/><path d=" M 38.384 93.033 L 34.024 97.393 C 26.98 95.019 20.639 91.119 15.393 86.086 L 20.755 80.724 C 25.903 85.716 31.85 89.888 38.384 93.033 Z " fill="rgb(30,150,130)"/><path d=" M 89.844 39.063 C 93.452 39.063 96.772 40.289 99.417 42.343 C 99.801 44.839 100 47.396 100 50 C 100 56.696 98.68 63.082 96.293 68.918 C 94.326 69.811 92.144 70.312 89.844 70.312 C 81.214 70.312 74.219 63.317 74.219 54.688 C 74.219 46.058 81.214 39.063 89.844 39.063 Z " fill="rgb(230,90,160)"/><path d=" M 97.656 54.688 C 97.656 55.766 96.782 56.641 95.703 56.641 C 95.703 56.641 87.26 56.635 83.514 56.627 C 82.563 56.625 81.869 57.52 82.098 58.444 C 82.101 58.454 82.103 58.464 82.105 58.473 C 82.267 59.12 82.852 59.57 83.518 59.57 L 91.73 59.57 C 92.77 59.57 93.678 60.356 93.746 61.394 C 93.819 62.531 92.918 63.477 91.797 63.477 L 87.486 63.477 C 86.182 63.477 85.523 65.072 86.465 65.974 C 88.415 67.839 90.846 69.205 93.555 69.865 C 92.365 70.156 91.123 70.312 89.843 70.312 C 81.214 70.312 74.218 63.317 74.218 54.688 C 74.218 46.058 81.214 39.063 89.843 39.063 C 91.123 39.063 92.365 39.22 93.555 39.51 C 90.846 40.17 88.415 41.536 86.465 43.401 C 85.523 44.303 86.182 45.898 87.486 45.898 L 91.73 45.898 C 92.712 45.898 93.593 46.595 93.73 47.568 C 93.9 48.773 92.969 49.805 91.797 49.805 L 83.519 49.805 C 82.852 49.805 82.267 50.256 82.106 50.902 C 82.103 50.911 82.101 50.921 82.098 50.931 C 81.87 51.855 82.563 52.75 83.514 52.748 C 87.26 52.74 95.703 52.734 95.703 52.734 C 96.782 52.734 97.656 53.609 97.656 54.688 Z " fill="rgb(190,65,120)"/><path d=" M 35.351 0 C 41.823 0 47.07 5.247 47.07 11.719 C 47.07 18.191 41.823 23.437 35.351 23.437 C 28.879 23.437 23.633 18.191 23.633 11.719 C 23.633 5.247 28.879 0 35.351 0 Z " fill="rgb(220,160,65)"/><path d=" M 38.135 23.102 C 37.243 23.32 36.311 23.437 35.351 23.437 C 28.879 23.437 23.633 18.191 23.633 11.719 C 23.633 5.247 28.879 0 35.351 0 C 36.311 0 37.243 0.118 38.135 0.335 C 34.27 1.277 31.156 4.135 29.856 7.846 C 29.993 7.826 30.131 7.812 30.273 7.812 C 31.891 7.812 33.203 9.124 33.203 10.742 C 33.203 12.36 31.891 13.672 30.273 13.672 C 29.946 13.672 29.633 13.616 29.339 13.517 C 30.063 18.215 33.576 21.991 38.135 23.102 Z  M 35.156 5.859 C 35.156 6.938 36.031 7.812 37.11 7.812 C 38.188 7.812 39.063 6.938 39.063 5.859 C 39.063 4.781 38.188 3.906 37.11 3.906 C 36.031 3.906 35.156 4.781 35.156 5.859 Z  M 39.063 15.625 C 37.984 15.625 37.11 16.499 37.11 17.578 C 37.11 18.657 37.984 19.531 39.063 19.531 C 40.141 19.531 41.016 18.657 41.016 17.578 C 41.016 16.499 40.141 15.625 39.063 15.625 Z " fill="rgb(185,125,35)"/><path d=" M 83.984 78.125 C 83.984 80.283 82.236 82.031 80.078 82.031 C 77.921 82.031 76.172 80.283 76.172 78.125 C 76.172 75.968 77.921 74.219 80.078 74.219 C 82.236 74.219 83.984 75.968 83.984 78.125 Z " fill="rgb(108,155,170)"/><path d=" M 60.545 9.393 L 59.621 9.898 C 59.457 9.988 59.322 10.123 59.232 10.287 L 58.727 11.211 C 58.357 11.888 57.384 11.888 57.013 11.211 L 56.508 10.287 C 56.418 10.123 56.283 9.988 56.12 9.898 L 55.195 9.393 C 54.518 9.023 54.518 8.05 55.195 7.679 L 56.12 7.174 C 56.283 7.084 56.418 6.95 56.508 6.785 L 57.013 5.861 C 57.384 5.184 58.357 5.184 58.727 5.861 L 59.232 6.785 C 59.322 6.95 59.457 7.084 59.621 7.174 L 60.545 7.679 C 61.222 8.05 61.222 9.023 60.545 9.393 Z  M 66.404 43.342 L 65.48 42.836 C 65.316 42.746 65.182 42.612 65.092 42.448 L 64.586 41.523 C 64.216 40.846 63.243 40.846 62.873 41.523 L 62.367 42.448 C 62.277 42.612 62.143 42.746 61.979 42.836 L 61.055 43.342 C 60.377 43.712 60.377 44.685 61.055 45.055 L 61.979 45.561 C 62.143 45.65 62.277 45.785 62.367 45.949 L 62.873 46.873 C 63.243 47.55 64.216 47.55 64.586 46.873 L 65.092 45.949 C 65.182 45.785 65.316 45.65 65.48 45.561 L 66.404 45.055 C 67.082 44.685 67.082 43.712 66.404 43.342 Z " fill="rgb(180,215,220)"/><path d=" M 73.711 15.252 L 72.787 15.757 C 72.623 15.847 72.488 15.982 72.398 16.146 L 71.893 17.07 C 71.522 17.748 70.55 17.748 70.179 17.07 L 69.674 16.146 C 69.584 15.982 69.449 15.847 69.285 15.757 L 68.361 15.252 C 67.684 14.882 67.684 13.909 68.361 13.539 L 69.285 13.033 C 69.449 12.943 69.584 12.809 69.674 12.645 L 70.179 11.721 C 70.55 11.043 71.522 11.043 71.893 11.721 L 72.398 12.645 C 72.488 12.809 72.623 12.943 72.787 13.033 L 73.711 13.539 C 74.388 13.909 74.388 14.882 73.711 15.252 Z  M 56.133 33.07 L 55.208 32.564 C 55.044 32.475 54.91 32.34 54.82 32.176 L 54.315 31.252 C 53.944 30.575 52.971 30.575 52.601 31.252 L 52.096 32.176 C 52.006 32.34 51.871 32.475 51.707 32.564 L 50.783 33.07 C 50.106 33.44 50.106 34.413 50.783 34.783 L 51.707 35.289 C 51.871 35.378 52.006 35.513 52.096 35.677 L 52.601 36.601 C 52.971 37.279 53.944 37.279 54.315 36.601 L 54.82 35.677 C 54.91 35.513 55.044 35.378 55.208 35.289 L 56.133 34.783 C 56.81 34.413 56.81 33.44 56.133 33.07 Z " fill="rgb(210,145,55)"/><path d=" M 19.529 28.924 L 18.605 29.43 C 18.441 29.519 18.306 29.654 18.217 29.818 L 17.711 30.742 C 17.341 31.419 16.368 31.419 15.998 30.742 L 15.492 29.818 C 15.403 29.654 15.268 29.519 15.104 29.43 L 14.18 28.924 C 13.502 28.554 13.502 27.581 14.18 27.21 L 15.104 26.705 C 15.268 26.616 15.403 26.481 15.492 26.317 L 15.998 25.393 C 16.368 24.715 17.341 24.715 17.711 25.393 L 18.217 26.317 C 18.306 26.481 18.441 26.616 18.605 26.705 L 19.529 27.21 C 20.207 27.581 20.207 28.554 19.529 28.924 Z  M 69.804 62.367 L 68.88 61.861 C 68.717 61.772 68.582 61.637 68.492 61.473 L 67.987 60.549 C 67.616 59.871 66.643 59.871 66.273 60.549 L 65.767 61.473 C 65.678 61.637 65.543 61.772 65.379 61.861 L 64.455 62.367 C 63.777 62.737 63.777 63.71 64.455 64.08 L 65.379 64.586 C 65.543 64.675 65.678 64.81 65.767 64.974 L 66.273 65.898 C 66.643 66.576 67.616 66.576 67.987 65.898 L 68.492 64.974 C 68.582 64.81 68.717 64.675 68.88 64.586 L 69.804 64.08 C 70.482 63.71 70.482 62.737 69.804 62.367 Z " fill="rgb(255,199,114)"/><path d=" M 82.029 28.924 L 81.105 29.43 C 80.941 29.519 80.806 29.654 80.717 29.818 L 80.211 30.742 C 79.841 31.419 78.868 31.419 78.498 30.742 L 77.992 29.818 C 77.903 29.654 77.768 29.519 77.604 29.43 L 76.68 28.924 C 76.002 28.554 76.002 27.581 76.68 27.21 L 77.604 26.705 C 77.768 26.616 77.903 26.481 77.992 26.317 L 78.498 25.393 C 78.868 24.715 79.841 24.715 80.211 25.393 L 80.717 26.317 C 80.806 26.481 80.941 26.616 81.105 26.705 L 82.029 27.21 C 82.707 27.581 82.707 28.554 82.029 28.924 Z  M 41.014 31.623 L 40.09 31.117 C 39.926 31.028 39.791 30.893 39.701 30.729 L 39.196 29.805 C 38.825 29.128 37.852 29.128 37.482 29.805 L 36.977 30.729 C 36.887 30.893 36.752 31.028 36.588 31.117 L 35.664 31.623 C 34.987 31.993 34.987 32.966 35.664 33.337 L 36.588 33.842 C 36.752 33.932 36.887 34.066 36.977 34.23 L 37.482 35.155 C 37.852 35.832 38.825 35.832 39.196 35.155 L 39.701 34.23 C 39.791 34.066 39.926 33.932 40.09 33.842 L 41.014 33.337 C 41.691 32.966 41.691 31.993 41.014 31.623 Z  M 66.406 23.437 C 64.249 23.437 62.5 25.186 62.5 27.344 C 62.5 29.501 64.249 31.25 66.406 31.25 C 68.564 31.25 70.312 29.501 70.312 27.344 C 70.312 25.186 68.564 23.437 66.406 23.437 Z " fill="rgb(60,80,100)"/></g></g></g></g></g></svg>